<?xml version="1.0" encoding="utf-8"?>
<!-- Generator: Adobe Illustrator 16.0.0, SVG Export Plug-In . SVG Version: 6.00 Build 0)  -->
<!DOCTYPE svg PUBLIC "-//W3C//DTD SVG 1.1//EN" "http://www.w3.org/Graphics/SVG/1.1/DTD/svg11.dtd">
<svg version="1.1" id="Layer_1" xmlns="http://www.w3.org/2000/svg" xmlns:xlink="http://www.w3.org/1999/xlink" x="0px" y="0px"
	 width="256px" height="256px" viewBox="0 0 256 256" enable-background="new 0 0 256 256" xml:space="preserve">
<path fill="#FFF0E0" d="M256,244c0,6.627-5.373,12-12,12H12c-6.627,0-12-5.373-12-12V12C0,5.373,5.373,0,12,0h232
	c6.627,0,12,5.373,12,12V244z"/>
<g>
	<defs>
		<path id="SVGID_1_" d="M256,244c0,6.627-5.373,12-12,12H12c-6.627,0-12-5.373-12-12V12C0,5.373,5.373,0,12,0h232
			c6.627,0,12,5.373,12,12V244z"/>
	</defs>
	<clipPath id="SVGID_2_">
		<use xlink:href="#SVGID_1_"  overflow="visible"/>
	</clipPath>
	<g clip-path="url(#SVGID_2_)">
		<g>
			<path fill="#FFF0E0" d="M-15.347,272.296c-0.033-95.325-0.033-190.651-0.033-286.108c95.349,0,190.764,0,286.174,0.005
				c-0.001,95.371-0.001,190.737-0.003,286.103C175.421,272.296,80.054,272.296-15.347,272.296z M163.503,142.786
				c6.376-3.273,15.517,4.246,18.621-4.923c3.621-10.688-0.527-17.973-13.53-15.018c-0.337-2.692-0.548-4.384-0.795-6.374
				c-1.713,0.232-3.04,0.413-4.296,0.583C163.503,125.436,163.503,133.43,163.503,142.786z M131.96,123.018
				c-12.459-2.886-17.104,3.453-13.877,14.197c3.037,10.114,12.366,2.292,18.776,5.293c0-9.041,0-17.057,0-25.479
				c-1.268-0.101-2.564-0.205-4.08-0.326C132.515,118.747,132.292,120.466,131.96,123.018z M216.356,135.357
				c-0.159-4.881,1.985-10.39-3.073-11.659c-4.618-1.158-11.853-1.264-14.433,1.47c-2.596,2.752-2.938,11.083-0.595,14.286
				c4.202,5.748,11.757,1.643,19.389,2.596c-3.909-8.525-11.59-2.264-16.378-6.692C206.684,135.357,211.197,135.357,216.356,135.357
				z M91.711,135.469c0.099-6.463,1.992-12.135-7.099-12.848c-10.008-0.786-13.361,3.024-12.159,12.583
				c1.536,12.24,10.79,5.151,16.471,6.639c3.646,0.955,3.233-1.991,2.153-5.078c-4.398,0-8.866,0-13.335,0
				c0.003-0.433,0.006-0.864,0.008-1.296C82.235,135.469,86.719,135.469,91.711,135.469z M141.465,123.643c0,0.925,0,2.335,0,4.598
				c4.779,0,9.164,0,13.547,0c-0.015,0.547-0.026,1.095-0.04,1.642c-4.507,0-9.015,0-13.652,0
				c-2.146,19.166,11.637,9.575,18.312,12.418C163.599,126.167,158.552,119.168,141.465,123.643z M114.744,142.561
				c1.636-20.059-0.164-21.792-18.983-19.247c0.112,1.401,0.226,2.826,0.407,5.101c4.851,0,9.154,0,13.458,0
				c-0.026,0.562-0.053,1.124-0.078,1.686c-4.525,0-9.049,0-13.621,0C93.815,148.948,107.484,139.465,114.744,142.561z
				 M48.519,130.848c4.639-21.31,1.215-27.999-10.003-26.53c1.931,16.645-3.821,33.952,4.275,50.685
				c7.66-12.885,2.864-26.591,5.728-45.673C48.519,118.762,48.519,122.002,48.519,130.848z M183.995,116.55
				c5.017,8.61-5.109,21.058,8.862,26.54c3.064-5.132-0.119-5.853-2.516-7.118c0-6.297,0-12.52,0-19.071
				C188.668,116.807,187.329,116.733,183.995,116.55z M52.817,143.717c10.261-4.371,3.686-12.418,7.875-15.871
				c3.134-0.15,6.096-0.29,9.749-0.464c-1.524-7.308-7.264-4.823-10.021-4.157C48.897,126.004,57.46,135.353,52.817,143.717z"/>
			<path fill-rule="evenodd" clip-rule="evenodd" fill="#717171" d="M163.503,142.786c0-9.355,0-17.35,0-25.731
				c1.256-0.17,2.583-0.35,4.296-0.583c0.247,1.99,0.458,3.682,0.795,6.374c13.003-2.956,17.151,4.329,13.53,15.018
				C179.02,147.032,169.879,139.512,163.503,142.786z M168.483,136.724c3.183,0,6.079,0,8.881,0c0-3.179,0-5.934,0-8.717
				c-3.178,0-5.948,0-8.881,0C168.483,131.088,168.483,133.852,168.483,136.724z"/>
			<path fill-rule="evenodd" clip-rule="evenodd" fill="#6E6E6E" d="M131.96,123.018c0.331-2.552,0.555-4.271,0.819-6.314
				c1.516,0.121,2.812,0.225,4.08,0.326c0,8.422,0,16.438,0,25.479c-6.41-3.001-15.739,4.821-18.776-5.293
				C114.857,126.471,119.501,120.132,131.96,123.018z M132.065,136.976c0-3.317,0-6.08,0-9.032c-3.127,0-5.903,0-8.82,0
				c0,3.165,0,6.061,0,9.032C126.31,136.976,128.958,136.976,132.065,136.976z"/>
			<path fill-rule="evenodd" clip-rule="evenodd" fill="#6E6E6E" d="M216.356,135.357c-5.159,0-9.672,0-15.09,0
				c4.788,4.429,12.469-1.833,16.378,6.692c-7.632-0.953-15.187,3.152-19.389-2.596c-2.343-3.203-2.001-11.533,0.595-14.286
				c2.58-2.734,9.814-2.628,14.433-1.47C218.341,124.967,216.197,130.476,216.356,135.357z M201.905,128.437
				c0.011,0.449,0.023,0.899,0.033,1.349c3.099,0,6.198,0,9.298,0c-0.014-0.449-0.026-0.899-0.04-1.349
				C208.1,128.437,205.001,128.437,201.905,128.437z"/>
			<path fill-rule="evenodd" clip-rule="evenodd" fill="#6E6E6E" d="M91.711,135.469c-4.992,0-9.477,0-13.96,0
				c-0.002,0.432-0.004,0.863-0.008,1.296c4.469,0,8.937,0,13.335,0c1.08,3.087,1.493,6.033-2.153,5.078
				c-5.681-1.487-14.936,5.602-16.471-6.639c-1.202-9.559,2.151-13.369,12.159-12.583C93.703,123.334,91.81,129.006,91.711,135.469z
				 M86.932,129.898c-0.014-0.438-0.028-0.875-0.043-1.313c-3.103,0-6.205,0-9.308,0c0.022,0.438,0.045,0.876,0.067,1.313
				C80.743,129.898,83.837,129.898,86.932,129.898z"/>
			<path fill-rule="evenodd" clip-rule="evenodd" fill="#717171" d="M141.465,123.643c17.087-4.475,22.134,2.524,18.167,18.658
				c-6.676-2.843-20.459,6.748-18.312-12.418c4.638,0,9.146,0,13.652,0c0.014-0.547,0.025-1.095,0.04-1.642
				c-4.383,0-8.768,0-13.547,0C141.465,125.978,141.465,124.568,141.465,123.643z M155.16,136.478
				c-0.035-0.46-0.069-0.922-0.106-1.382c-3.009,0-6.021,0-9.03,0c0.032,0.46,0.065,0.922,0.098,1.382
				C149.133,136.478,152.146,136.478,155.16,136.478z"/>
			<path fill-rule="evenodd" clip-rule="evenodd" fill="#717171" d="M114.744,142.561c-7.26-3.096-20.929,6.387-18.817-12.46
				c4.572,0,9.096,0,13.621,0c0.025-0.562,0.052-1.124,0.078-1.686c-4.304,0-8.607,0-13.458,0c-0.181-2.275-0.295-3.7-0.407-5.101
				C114.581,120.769,116.38,122.502,114.744,142.561z M100.655,134.976c0.013,0.453,0.023,0.91,0.036,1.362c3.04,0,6.079,0,9.119,0
				c-0.013-0.452-0.025-0.909-0.038-1.362C106.732,134.976,103.694,134.976,100.655,134.976z"/>
			<path fill-rule="evenodd" clip-rule="evenodd" fill="#6E6E6E" d="M48.519,130.848c0-8.846,0-12.086,0-21.519
				c-2.864,19.082,1.932,32.788-5.728,45.673c-8.096-16.732-2.344-34.04-4.275-50.685C49.734,102.85,53.158,109.539,48.519,130.848z
				 M40.735,143.792c1.354-0.283,2.706-0.566,4.06-0.85c0-9.644,0-19.29,0-29c-4.142-1.345-4.104,1.109-4.083,3.831
				C40.776,126.445,40.735,135.118,40.735,143.792z"/>
			<path fill-rule="evenodd" clip-rule="evenodd" fill="#717171" d="M183.995,116.55c3.334,0.184,4.674,0.257,6.347,0.35
				c0,6.552,0,12.774,0,19.071c2.396,1.266,5.58,1.986,2.516,7.118C178.885,137.608,189.011,125.16,183.995,116.55z"/>
			<path fill-rule="evenodd" clip-rule="evenodd" fill="#6E6E6E" d="M52.817,143.717c4.643-8.364-3.92-17.713,7.603-20.492
				c2.756-0.666,8.497-3.151,10.021,4.157c-3.652,0.174-6.614,0.314-9.749,0.464C56.503,131.299,63.079,139.346,52.817,143.717z"/>
			<path fill-rule="evenodd" clip-rule="evenodd" fill="#FFF0E0" d="M168.483,136.724c0-2.872,0-5.636,0-8.717
				c2.933,0,5.703,0,8.881,0c0,2.783,0,5.538,0,8.717C174.562,136.724,171.666,136.724,168.483,136.724z"/>
			<path fill-rule="evenodd" clip-rule="evenodd" fill="#FFF0E0" d="M132.065,136.976c-3.107,0-5.755,0-8.82,0
				c0-2.972,0-5.867,0-9.032c2.917,0,5.693,0,8.82,0C132.065,130.896,132.065,133.659,132.065,136.976z"/>
			<path fill-rule="evenodd" clip-rule="evenodd" fill="#FFF0E0" d="M201.905,128.437c3.097,0,6.195,0,9.291,0
				c0.014,0.449,0.026,0.899,0.04,1.349c-3.1,0-6.199,0-9.298,0C201.928,129.336,201.916,128.886,201.905,128.437z"/>
			<path fill-rule="evenodd" clip-rule="evenodd" fill="#FFF0E0" d="M86.932,129.898c-3.095,0-6.189,0-9.284,0
				c-0.022-0.438-0.045-0.875-0.067-1.313c3.103,0,6.205,0,9.308,0C86.904,129.023,86.918,129.46,86.932,129.898z"/>
			<path fill-rule="evenodd" clip-rule="evenodd" fill="#FFF0E0" d="M155.16,136.478c-3.014,0-6.026,0-9.039,0
				c-0.032-0.46-0.065-0.922-0.098-1.382c3.01,0,6.021,0,9.03,0C155.09,135.556,155.125,136.018,155.16,136.478z"/>
			<path fill-rule="evenodd" clip-rule="evenodd" fill="#FFF0E0" d="M100.655,134.976c3.039,0,6.078,0,9.116,0
				c0.013,0.453,0.025,0.91,0.038,1.362c-3.04,0-6.079,0-9.119,0C100.678,135.886,100.667,135.429,100.655,134.976z"/>
			<path fill-rule="evenodd" clip-rule="evenodd" fill="#FFF0E0" d="M40.735,143.792c0-8.674,0.041-17.346-0.024-26.018
				c-0.02-2.722-0.058-5.176,4.083-3.831c0,9.71,0,19.356,0,29C43.441,143.225,42.089,143.508,40.735,143.792z"/>
		</g>
	</g>
</g>
</svg>
